<?xml version="1.0" encoding="UTF-8"?>
<svg id="Layer_1" data-name="Layer 1" xmlns="http://www.w3.org/2000/svg" viewBox="0 0 512 512">
  <defs>
    <style>
      .cls-1 {
        fill: #cb2026;
      }
    </style>
  </defs>
  <path class="cls-1" d="M447.79,210.11H64.13C27.78,210.11,0,239.65,0,276.06v205.18c0,.78.63,1.4,1.4,1.4h49.6c.78,0,1.4-.63,1.4-1.4v-208.24h407.11v208.24c0,.78.63,1.4,1.4,1.4h49.67c.78,0,1.4-.63,1.4-1.4v-205.18c0-36.42-27.72-65.95-64.21-65.95Z"/>
  <path class="cls-1" d="M139,94.06c-14.67,5.19-29.33,5.19-44,0-3.25-1.22-7.19-5.16-8.41-8.41-5.19-14.67-5.19-29.33,0-44,1.22-3.25,5.16-7.19,8.41-8.41,14.67-5.19,29.33-5.19,44,0,3.25,1.22,7.19,5.16,8.41,8.41,5.19,14.67,5.19,29.33,0,44-1.22,3.25-5.16,7.19-8.41,8.41Z"/>
  <path class="cls-1" d="M417,94.06c-14.67,5.19-29.33,5.19-44,0-3.25-1.22-7.19-5.16-8.41-8.41-5.19-14.67-5.19-29.33,0-44,1.22-3.25,5.16-7.19,8.41-8.41,14.67-5.19,29.33-5.19,44,0,3.25,1.22,7.19,5.16,8.41,8.41,5.19,14.67,5.19,29.33,0,44-1.22,3.25-5.16,7.19-8.41,8.41Z"/>
</svg>